<?xml version="1.0" standalone="no"?>
<!DOCTYPE svg PUBLIC "-//W3C//DTD SVG 20010904//EN"
 "http://www.w3.org/TR/2001/REC-SVG-20010904/DTD/svg10.dtd">
<svg version="1.0" xmlns="http://www.w3.org/2000/svg"
 width="800.000000pt" height="800.000000pt" viewBox="0 0 800.000000 800.000000"
 preserveAspectRatio="xMidYMid meet">
<metadata>
Created by potrace 1.11, written by Peter Selinger 2001-2013
</metadata>
<g transform="translate(0.000000,800.000000) scale(0.100000,-0.100000)"
fill="#000000" stroke="none">
<path d="M0 4000 l0 -4000 4000 0 4000 0 0 4000 0 4000 -4000 0 -4000 0 0
-4000z m4067 3039 c34 -8 71 -9 123 -2 79 11 381 -6 470 -26 25 -6 68 -10 97
-11 28 0 124 -16 212 -35 88 -19 172 -35 187 -35 15 0 75 -22 133 -48 115 -53
163 -71 256 -98 57 -16 68 -25 205 -163 142 -143 147 -149 219 -286 41 -77
110 -195 153 -262 104 -162 151 -251 184 -348 25 -76 26 -87 21 -220 -6 -161
-34 -286 -98 -443 -63 -154 -168 -320 -261 -409 -58 -55 -209 -155 -226 -148
-7 2 -24 -2 -37 -11 -12 -8 -43 -16 -66 -17 -42 -1 -62 -16 -369 -262 -297
-238 -606 -480 -638 -499 -10 -6 -11 -1 -6 21 6 23 5 26 -7 16 -25 -20 -123
-52 -151 -48 -19 2 -28 -1 -28 -11 0 -8 -4 -14 -10 -14 -13 0 -12 11 4 33 7 9
21 17 30 17 10 0 14 5 11 10 -11 17 -55 11 -98 -14 -23 -14 -85 -41 -137 -61
-52 -20 -143 -59 -202 -87 l-108 -52 0 -37 c0 -21 14 -75 32 -121 l32 -83 8
-310 c5 -170 11 -410 14 -532 3 -165 8 -223 17 -223 7 0 3 -7 -8 -16 -18 -13
-21 -30 -25 -162 -5 -144 -5 -146 -17 -94 -7 29 -13 60 -13 69 0 14 -2 14 -15
-3 -14 -18 -14 -17 -15 14 0 22 -4 32 -12 29 -9 -2 -14 -30 -15 -83 0 -43 -6
-92 -12 -107 -6 -16 -11 -34 -11 -40 0 -7 -4 -6 -10 3 -5 8 -10 38 -11 65 0
28 -4 61 -9 75 -6 23 -8 22 -15 -15 -6 -28 -3 -68 10 -130 10 -49 18 -100 17
-112 -1 -11 5 -24 13 -27 8 -3 15 -13 15 -22 0 -10 -5 -14 -15 -10 -20 7 -19
-18 2 -50 14 -22 15 -29 4 -47 -11 -17 -11 -22 3 -33 16 -11 16 -14 0 -48 -17
-34 -17 -39 -1 -89 19 -60 22 -113 7 -122 -6 -3 -10 -31 -10 -61 0 -66 -14
-69 -52 -14 -15 22 -32 40 -36 40 -5 0 -30 -31 -57 -70 -49 -71 -75 -86 -93
-54 -7 13 -20 16 -60 12 -43 -4 -51 -2 -55 14 -6 22 -33 24 -41 2 -3 -8 -2
-23 3 -33 12 -22 2 -38 -30 -46 -17 -4 -30 -1 -38 9 -18 22 -51 21 -51 -1 0
-10 7 -36 16 -60 19 -48 13 -73 -16 -73 -17 0 -20 -7 -21 -47 0 -39 -2 -44 -9
-25 -5 12 -18 22 -29 22 -10 0 -40 21 -65 47 -43 43 -47 45 -64 30 -11 -10
-26 -14 -40 -10 -15 3 -22 1 -22 -8 -1 -10 -4 -9 -14 3 -7 10 -15 15 -18 13
-5 -6 -58 58 -58 70 0 3 12 2 27 -1 26 -7 26 -7 20 40 -13 89 -81 229 -118
241 -24 8 -12 42 16 49 34 9 45 53 52 209 6 125 5 137 -10 131 -10 -3 -17 -1
-17 5 0 6 7 11 15 11 16 0 16 -1 -4 210 -6 54 -4 87 6 120 9 27 12 66 9 98 -2
28 -1 52 4 52 15 0 32 40 25 58 -4 9 -7 40 -6 67 4 92 -52 370 -73 370 -5 0
-13 -7 -19 -16 -13 -22 12 -139 30 -139 7 0 13 -4 13 -10 0 -5 -7 -10 -15 -10
-17 0 -42 -46 -31 -57 3 -4 12 -1 18 5 18 18 28 15 28 -7 0 -11 -8 -26 -18
-33 -10 -7 -23 -22 -29 -33 -10 -16 -12 -12 -17 30 -16 131 -51 279 -114 485
-38 124 -80 272 -92 330 -12 58 -27 114 -32 124 -6 11 -10 68 -9 127 2 82 -2
115 -14 139 -18 35 -17 111 2 117 13 5 23 -24 28 -79 7 -75 45 -241 60 -264
18 -27 35 -32 35 -9 0 25 -101 458 -111 475 -6 10 -9 3 -9 -25 0 -52 -10 -86
-21 -79 -5 3 -8 2 -7 -3 2 -4 -2 -9 -7 -10 -6 -2 -9 16 -8 42 2 34 -1 45 -12
45 -18 0 -20 27 -4 32 13 4 -5 47 -24 59 -12 8 -66 233 -67 276 0 17 -4 43
-10 58 -5 14 -15 92 -20 173 -15 206 -39 340 -61 327 -5 -4 -9 -1 -9 4 0 6 -5
10 -12 9 -9 -2 -16 33 -24 119 -15 150 -36 218 -75 242 -22 14 -26 20 -16 30
9 9 9 14 -3 21 -11 7 -12 12 -4 18 14 9 12 88 -4 122 -6 14 -21 75 -32 135
-11 61 -28 131 -37 156 -13 37 -14 58 -6 115 6 38 9 74 6 80 -2 5 -37 16 -77
22 -40 7 -83 20 -95 29 -23 16 -24 22 -6 94 5 19 0 33 -18 54 -29 35 -52 29
-66 -17 -5 -19 -10 -25 -10 -14 -1 11 4 35 11 53 10 26 9 41 -1 70 -14 37 -14
37 28 73 22 19 41 42 41 51 0 8 7 25 16 37 15 22 15 24 -2 36 -16 12 -15 14 9
20 33 8 35 31 5 40 -22 6 -21 7 10 21 28 12 32 18 26 41 -7 27 -7 27 38 22 45
-5 46 -5 56 31 10 31 9 38 -9 58 -18 18 -20 29 -14 69 10 70 19 85 25 44 4
-31 9 -35 37 -38 20 -2 39 -12 48 -25 l15 -22 38 20 c32 17 37 25 37 55 0 55
27 82 40 40 10 -32 47 -24 116 24 84 57 136 83 184 91 22 4 135 36 250 70 116
35 266 77 335 94 137 33 382 71 463 72 41 0 153 13 249 28 3 1 28 -4 55 -10z
m-1747 -459 c0 -5 -4 -10 -10 -10 -5 0 -10 5 -10 10 0 6 5 10 10 10 6 0 10 -4
10 -10z m-220 -106 c0 -12 -4 -12 -20 -4 -11 6 -20 17 -20 26 0 12 4 12 20 4
11 -6 20 -17 20 -26z m-161 -50 c36 -8 42 -34 7 -34 -28 0 -82 39 -55 40 9 0
31 -3 48 -6z m88 -176 c-3 -7 -5 -2 -5 12 0 14 2 19 5 13 2 -7 2 -19 0 -25z
m13 -294 c0 -8 -5 -12 -10 -9 -6 4 -8 11 -5 16 9 14 15 11 15 -7z m150 -184
c0 -5 -4 -10 -10 -10 -5 0 -10 5 -10 10 0 6 5 10 10 10 6 0 10 -4 10 -10z
m250 -1040 c0 -5 -7 -10 -15 -10 -8 0 -15 5 -15 10 0 6 7 10 15 10 8 0 15 -4
15 -10z m4 -201 c-3 -5 -10 -7 -15 -3 -5 3 -7 10 -3 15 3 5 10 7 15 3 5 -3 7
-10 3 -15z m-244 -184 c0 -8 -4 -15 -9 -15 -13 0 -22 16 -14 24 11 11 23 6 23
-9z m16 -102 c-10 -10 -19 5 -10 18 6 11 8 11 12 0 2 -7 1 -15 -2 -18z m264
-248 c0 -8 -4 -15 -10 -15 -5 0 -10 7 -10 15 0 8 5 15 10 15 6 0 10 -7 10 -15z
m50 -195 c0 -5 -7 -10 -15 -10 -8 0 -15 5 -15 10 0 6 7 10 15 10 8 0 15 -4 15
-10z m-53 -42 c-3 -8 -6 -5 -6 6 -1 11 2 17 5 13 3 -3 4 -12 1 -19z m2099 -93
c-11 -8 -27 -15 -35 -15 -13 1 -12 4 3 15 11 8 27 15 35 15 13 -1 12 -4 -3
-15z m-2011 -105 c10 -84 13 -89 53 -95 20 -4 43 -8 50 -11 17 -5 12 -35 -8
-44 -8 -4 -29 -13 -46 -22 l-31 -15 -12 59 c-7 33 -25 96 -41 141 -32 90 -30
114 6 71 14 -19 25 -49 29 -84z m-135 51 c0 -5 -7 -14 -15 -21 -13 -10 -15 -9
-15 9 0 12 6 21 15 21 8 0 15 -4 15 -9z m188 -127 c-10 -10 -28 6 -28 24 0 15
1 15 17 -1 9 -9 14 -19 11 -23z m-264 -35 c-3 -5 -10 -7 -15 -3 -5 3 -7 10 -3
15 3 5 10 7 15 3 5 -3 7 -10 3 -15z m286 -85 c0 -8 -5 -12 -10 -9 -6 4 -8 11
-5 16 9 14 15 11 15 -7z m-34 -31 c-10 -10 -19 5 -10 18 6 11 8 11 12 0 2 -7
1 -15 -2 -18z m40 -160 c-10 -10 -19 5 -10 18 6 11 8 11 12 0 2 -7 1 -15 -2
-18z m74 -168 c0 -8 -4 -15 -10 -15 -5 0 -10 7 -10 15 0 8 5 15 10 15 6 0 10
-7 10 -15z m270 -625 c0 -5 -4 -10 -10 -10 -5 0 -10 5 -10 10 0 6 5 10 10 10
6 0 10 -4 10 -10z m60 -20 c0 -5 -4 -10 -10 -10 -5 0 -10 5 -10 10 0 6 5 10
10 10 6 0 10 -4 10 -10z m-10 -60 c0 -15 -7 -33 -15 -40 -13 -11 -15 -5 -15
40 0 45 2 51 15 40 8 -7 15 -25 15 -40z m-70 21 c0 -6 -4 -13 -10 -16 -5 -3
-10 1 -10 9 0 9 5 16 10 16 6 0 10 -4 10 -9z m10 -62 c0 -11 -4 -17 -10 -14
-5 3 -10 13 -10 21 0 8 5 14 10 14 6 0 10 -9 10 -21z m10 -39 c0 -5 -2 -10 -4
-10 -3 0 -8 5 -11 10 -3 6 -1 10 4 10 6 0 11 -4 11 -10z m-3 -72 c-3 -7 -5 -2
-5 12 0 14 2 19 5 13 2 -7 2 -19 0 -25z m22 -65 c0 -25 -1 -26 -9 -8 -12 27
-12 35 0 35 6 0 10 -12 9 -27z m1022 -30 c-12 -20 -14 -14 -5 12 4 9 9 14 11
11 3 -2 0 -13 -6 -23z m25 -120 c-10 -10 -19 5 -10 18 6 11 8 11 12 0 2 -7 1
-15 -2 -18z m-5 -126 c-13 -13 -15 41 -3 70 5 13 8 8 10 -21 2 -21 -1 -43 -7
-49z m-1093 27 c0 -18 -3 -22 -9 -13 -11 18 -11 39 0 39 5 0 9 -12 9 -26z
m1052 1 c0 -8 -4 -15 -10 -15 -5 0 -10 7 -10 15 0 8 5 15 10 15 6 0 10 -7 10
-15z m-1030 -45 c0 -5 -4 -10 -10 -10 -5 0 -10 5 -10 10 0 6 5 10 10 10 6 0
10 -4 10 -10z m1079 -64 c-9 -8 -10 -7 -5 7 3 10 7 24 7 30 1 7 3 4 6 -7 3
-10 -1 -23 -8 -30z m-39 -16 c0 -5 -4 -10 -10 -10 -5 0 -10 5 -10 10 0 6 5 10
10 10 6 0 10 -4 10 -10z m-1033 -72 c-2 -13 -4 -3 -4 22 0 25 2 35 4 23 2 -13
2 -33 0 -45z m1118 -105 c6 -87 -2 -122 -24 -109 -6 4 -11 19 -11 34 0 23 -7
30 -42 42 -49 17 -60 47 -16 42 35 -3 48 21 48 91 0 124 34 48 45 -100z
m-1135 147 c0 -5 -4 -10 -10 -10 -5 0 -10 5 -10 10 0 6 5 10 10 10 6 0 10 -4
10 -10z m-52 -138 c2 -7 -3 -12 -12 -12 -9 0 -16 7 -16 16 0 17 22 14 28 -4z
m1082 -127 c0 -8 -4 -15 -10 -15 -5 0 -10 7 -10 15 0 8 5 15 10 15 6 0 10 -7
10 -15z m-1010 -11 c0 -8 -5 -12 -10 -9 -6 4 -8 11 -5 16 9 14 15 11 15 -7z
m0 -34 c0 -5 -4 -10 -10 -10 -5 0 -10 5 -10 10 0 6 5 10 10 10 6 0 10 -4 10
-10z m-73 -132 c-3 -8 -6 -5 -6 6 -1 11 2 17 5 13 3 -3 4 -12 1 -19z m143
-128 c0 -4 -20 -8 -45 -8 -25 -1 -45 2 -45 8 0 5 20 9 45 8 25 0 45 -4 45 -8z"/>
<path d="M4215 5921 c-105 -20 -211 -54 -434 -140 -73 -28 -171 -58 -217 -66
-194 -34 -216 -72 -184 -306 11 -79 32 -179 46 -223 22 -66 27 -99 28 -205 1
-69 7 -144 13 -166 6 -22 14 -52 17 -67 4 -16 13 -28 21 -28 18 0 31 -81 16
-107 -8 -14 -10 -8 -11 35 0 28 -4 52 -8 52 -4 0 -8 -34 -7 -75 0 -56 3 -74
13 -70 6 2 12 0 12 -5 0 -13 75 -13 122 0 20 6 67 31 104 57 37 25 94 56 127
69 73 29 140 70 232 143 39 31 94 68 122 83 88 46 392 281 488 377 68 67 89
95 87 112 -3 17 0 20 12 16 12 -5 22 5 38 38 24 49 44 60 34 20 -7 -26 -6 -26
23 -11 72 37 159 158 167 232 6 47 4 52 -22 73 -15 12 -38 37 -50 55 -16 24
-33 35 -56 39 -18 2 -96 21 -173 42 -129 34 -153 38 -300 41 -127 3 -181 0
-260 -15z m755 -316 c0 -17 -52 -105 -62 -105 -14 0 -9 51 8 86 17 35 54 48
54 19z m-1529 -347 c-9 -20 -10 -18 -10 17 0 31 2 36 9 23 6 -10 7 -25 1 -40z
m1209 -28 c0 -5 -7 -10 -16 -10 -8 0 -12 5 -9 10 3 6 10 10 16 10 5 0 9 -4 9
-10z m-1190 -40 c0 -10 -4 -22 -10 -25 -6 -4 -10 7 -10 25 0 18 4 29 10 25 6
-3 10 -15 10 -25z m20 -190 c0 -5 -4 -10 -10 -10 -5 0 -10 5 -10 10 0 6 5 10
10 10 6 0 10 -4 10 -10z m10 -50 c0 -5 -4 -10 -10 -10 -5 0 -10 5 -10 10 0 6
5 10 10 10 6 0 10 -4 10 -10z m0 -45 c0 -8 -4 -15 -10 -15 -5 0 -10 7 -10 15
0 8 5 15 10 15 6 0 10 -7 10 -15z m17 -167 c-3 -8 -6 -5 -6 6 -1 11 2 17 5 13
3 -3 4 -12 1 -19z"/>
<path d="M2820 3355 c-14 -17 -11 -40 27 -178 17 -63 36 -108 52 -125 13 -14
19 -28 14 -29 -14 -5 4 -110 22 -137 8 -11 15 -35 15 -54 0 -40 17 -75 32 -66
14 9 3 109 -22 210 -11 42 -20 107 -20 144 0 58 -2 68 -17 66 -10 0 -18 6 -18
15 0 9 -5 23 -11 30 -16 20 -26 79 -13 79 6 0 7 5 4 10 -4 6 -10 8 -15 5 -4
-3 -11 6 -14 20 -7 29 -18 32 -36 10z m30 -45 c0 -5 -4 -10 -10 -10 -5 0 -10
5 -10 10 0 6 5 10 10 10 6 0 10 -4 10 -10z m40 -155 c0 -8 -4 -15 -10 -15 -5
0 -10 7 -10 15 0 8 5 15 10 15 6 0 10 -7 10 -15z"/>
<path d="M3586 1205 c-3 -8 -1 -15 3 -15 5 0 11 7 15 15 3 8 1 15 -3 15 -5 0
-11 -7 -15 -15z"/>
</g>
</svg>
